# xmcd CD database file
#
# Track frame offsets:
#	150
#	10555
#	23086
#	34304
#	54779
#	68568
#	86443
#	101366
#	114405
#	135231
#
# Disc length: 1978 seconds
#
# Revision: 0
# Processed by: cddbd v1.5.2PL0 Copyright (c) Steve Scherf et al.
# Submitted via: CDex 1.70beta2
#
DISCID=6507b80a
DTITLE=Ray Price - Help Me Make It Through The Night
DYEAR=2005
DGENRE=Country
TTITLE0=Help Me Make It Through The Night
TTITLE1=Sweet Heart Of The Year
TTITLE2=Crazy
TTITLE3=I'm Still Not Over You
TTITLE4=A Way To Survive
TTITLE5=Dont You Ever Get tired Of Hurtin' Me
TTITLE6=Soft Rain
TTITLE7=Funny How Time Slips Away (With Faron Young)
TTITLE8=Danny Boy
TTITLE9=Half A Man
EXTD=YEAR: 2005
EXTT0=
EXTT1=
EXTT2=
EXTT3=
EXTT4=
EXTT5=
EXTT6=
EXTT7=
EXTT8=
EXTT9=
PLAYORDER=
